PathFileType	4	(X/Y/Z)	17_2_17_p0_0-434_filt_butterworth.trc
DataRate	CameraRate	NumFrames	NumMarkers	Units	OrigDataRate	OrigDataStartFrame	OrigNumFrames
55.0	55.0	6	27	m	55.0	271	434
Frame#	Time	RHip			RKnee			RAnkle			RBigToe			RSmallToe			RHeel			LHip			LKnee			LAnkle			LBigToe			LSmallToe			LHeel			Neck			Head			Nose			RShoulder			RElbow			RWrist			RThumb			RIndex			RPinky			LShoulder			LElbow			LWrist			LThumb			LIndex			LPinky			
		X1	Y1	Z1	X2	Y2	Z2	X3	Y3	Z3	X4	Y4	Z4	X5	Y5	Z5	X6	Y6	Z6	X7	Y7	Z7	X8	Y8	Z8	X9	Y9	Z9	X10	Y10	Z10	X11	Y11	Z11	X12	Y12	Z12	X13	Y13	Z13	X14	Y14	Z14	X15	Y15	Z15	X16	Y16	Z16	X17	Y17	Z17	X18	Y18	Z18	X19	Y19	Z19	X20	Y20	Z20	X21	Y21	Z21	X22	Y22	Z22	X23	Y23	Z23	X24	Y24	Z24	X25	Y25	Z25	X26	Y26	Z26	X27	Y27	Z27	
271	4.927272727272728	0.26798584153786575	0.4546741992137552	0.8535235613258381	0.24225888304521553	0.5605649390460238	1.2939632802403098	0.2186781212636713	0.6963057785115274	1.7025812464390713	0.2530621859550091	0.5480269709876023	1.7396500053432695	0.30466336014944806	0.5927188932245947	1.7514355644801745	0.19387347866555696	0.7655093493589226	1.7730616862370736	0.07089147376102053	0.46102137368366203	0.856689748112879	0.06355390840905215	0.5620299338948103	1.2967393553596944	0.053945259222208095	0.6698887497388484	1.7174917704809105	0.08197609493704018	0.45067356519673973	1.6832169802464718	0.01208889550564532	0.5266414525236321	1.7190188761945797	0.06952655097419141	0.7548677363894716	1.7734660584568376	0.1841483486918731	0.45265732028796596	0.3087346965392008	0.18511107327499932	0.38417839508355484	0.06476608110530074	0.15692838558305208	0.3298210560484071	0.21381525177463903	0.31258051283964355	0.46773237590122574	0.3799110598909693	0.37306412209616463	0.3937106063070034	0.5958810355910641	0.31010490250173495	0.2678540172380525	0.4500747827412555	0.2574922211942905	0.264850097962713	0.3602184547576189	0.2711515243623015	0.22178357485463368	0.36025472079385845	0.29369799515183614	0.22679069676426158	0.39950227229597557	0.020789979625790368	0.5000568192941474	0.38335470596868726	-0.040541027958165055	0.6042176365554244	0.602295998723702	-0.0730175866035273	0.3840310609670107	0.6807699081243971	-0.06262413395423783	0.2716206179947408	0.6901567725816232	-0.07096831727062575	0.22237406182399025	0.6993735613398455	-0.07202574591134278	0.26964736713472803	0.7481989369697952
272	4.945454545454545	0.26863840964182556	0.45942099936227987	0.8560178652283714	0.24232716224796136	0.5603263064128673	1.2934301742810792	0.2187527009167429	0.6954644218017559	1.703208095520721	0.25313867271997054	0.5480118026539914	1.7396138918915682	0.3068477564172074	0.5924143238626636	1.7501375498859182	0.19335247286129364	0.7657012412402608	1.7731980250111072	0.07098052863579589	0.4597058765103394	0.8569083198488252	0.0649981418288045	0.558854807587898	1.2942474465995686	0.05359156848596357	0.6700040343540632	1.7174233680835846	0.08176007335401995	0.450646291306915	1.6836695541690492	0.0122305175289374	0.5261417739034545	1.718942671546247	0.06937872886214366	0.7542099654178206	1.773513736623171	0.18614880698942293	0.4478212689677663	0.30576235132702223	0.18586553658688276	0.3859801742517193	0.06377290000084049	0.15946193447046417	0.32898620918665594	0.20997615073397322	0.3131387871299873	0.4688011995497351	0.381397187104051	0.3734294947591156	0.40275924135284075	0.6075461027233466	0.31240936090599725	0.2710585048711947	0.4744101681312174	0.26056249954486227	0.23389471781504745	0.38432506535383604	0.2686739824182208	0.19355423255339776	0.38621432421810725	0.28686067214389477	0.20649093461778548	0.4324168150029391	0.020389572183295963	0.4986615261046893	0.38276298474787934	-0.03860926765725634	0.6141435484630338	0.6025834282587591	-0.06146862292395995	0.37476243484705224	0.6719270839481715	-0.06054001633627504	0.2705131192905001	0.6665699470832818	-0.07082102607486415	0.2225382742503624	0.678943307432965	-0.06684229176057764	0.2670094577999811	0.7245917604131196
273	4.963636363636364	0.2699520411155206	0.46786018654951794	0.8586963610247372	0.24229274241122906	0.559976032659625	1.293264657525014	0.22034862221767768	0.6911788927990137	1.701359336530666	0.25322019566059306	0.5479956771807005	1.739614284981439	0.30919317830011733	0.586333490000347	1.7467894247374114	0.19306234079077894	0.7657454468411024	1.773128018530598	0.07002084029707828	0.4595429597105968	0.8582170597608813	0.0681098787097015	0.5524427032419477	1.291548986548421	0.0535632611219699	0.6700692164942231	1.71694410259839	0.08143991694485819	0.4509034101506173	1.684993896678807	0.012119436900629369	0.5254969665610576	1.7188716867514315	0.06926645245175564	0.7538405553684754	1.7735697516437228	0.18655742484535742	0.44633153268939046	0.3016856822797438	0.18682208416371598	0.3868400223057761	0.0627399663433854	0.16183602026115457	0.32606550793450506	0.20725476873709875	0.3120582856936541	0.4737025692381241	0.3826361252936093	0.3734527435137057	0.41575643147794616	0.6148910874109043	0.3161304373349429	0.2727902886279341	0.4952880767505864	0.2643764561463359	0.2161234518719114	0.4060917312997113	0.2677813909546319	0.17919786243162522	0.4084173238187031	0.28505147315540147	0.1931424095568528	0.45928113244408464	0.019218695119429908	0.4979117259864761	0.3826374095488333	-0.03790873381067103	0.620649550609172	0.6027847218145517	-0.05428445513408566	0.36804992267513453	0.6600760700381494	-0.05877659352367705	0.2668311786695855	0.6405758145803109	-0.07062042563480606	0.22105474874981226	0.6542485775964938	-0.0646164816110985	0.2698749867452462	0.7001381664178908
274	4.9818181818181815	0.27150823769743415	0.47627649926061255	0.860589038891748	0.24228969520756125	0.5598564767045975	1.2933132643535203	0.2233550599902826	0.6833821651274647	1.697386590340815	0.25316663891516317	0.5478257800290557	1.7395621219778459	0.31023499549460326	0.5779442690498386	1.742660621602282	0.19377943427424849	0.7637904013565721	1.7730335580387058	0.06917758314406451	0.4596697508291592	0.8610513562243464	0.07196821641689706	0.5445700845185699	1.2891679154820601	0.053871662085370454	0.6700193514879924	1.7164462444017528	0.08107414444832475	0.4510982494503639	1.6866214467111926	0.01152307864689283	0.5250577977863397	1.7188289790848779	0.06923578367635176	0.7538467387250272	1.7736700222441497	0.18628009497131426	0.44676618869089446	0.2989961421321149	0.18770780544526927	0.3858590413940842	0.06233957164687953	0.1643645826514324	0.32204469032770777	0.20551690914337914	0.31054981414265886	0.4832658755048026	0.38402455716151485	0.37299294663212157	0.43336599250699087	0.6201865109109105	0.3210519004490966	0.2732620751340159	0.5111410789963876	0.27104373481988053	0.21419181005318028	0.42272588944584233	0.2730623426139804	0.18156946504317859	0.4256776362268476	0.29207586787999407	0.19209478644259717	0.4787972190635872	0.017770155561853185	0.4973865061949284	0.38241079231710223	-0.03807405573763395	0.6214204263307418	0.6023699228978852	-0.054278306641066275	0.36735239436306294	0.6435046699474453	-0.057428318966989966	0.2632882285910724	0.6143249178714724	-0.07034253205947703	0.21597751033759124	0.6264598763043784	-0.06456120004141688	0.2689100888210208	0.6746368974902897
275	5.0	0.2729327978351725	0.48099744895252416	0.8617426424897957	0.24231732334127914	0.5598480128579555	1.2933681321855475	0.2268771712849419	0.6741749194497103	1.6927173210471305	0.25281231139561405	0.5473753952525526	1.7394173756640767	0.31008940267967355	0.5726164205045847	1.7401241104062992	0.19603670986102048	0.7581101479207311	1.772303386743421	0.06890580849931369	0.45988940622480823	0.864946759150277	0.0752751482410185	0.5375989163062208	1.2878181504941704	0.05416785332409914	0.6698953457931562	1.7161253492570243	0.0808391910802924	0.45099592446927567	1.687617418466104	0.010956466652254663	0.5250762735610769	1.7188366292769697	0.06926109049616633	0.7540282222879385	1.7737710986321986	0.18558649453967202	0.4486743820341216	0.29897921220162993	0.18908042603123493	0.3825297143988474	0.0628984275755337	0.167097300257248	0.3195134240392239	0.20544749857016464	0.3117311033413018	0.4961002497048355	0.38573810888196963	0.37253554409578604	0.4543001025651871	0.6253295283543104	0.32707271275295124	0.27692720064233006	0.5211635614523954	0.2819596302959229	0.2198474705511695	0.43200436208502674	0.2855334227530543	0.19147500460711392	0.4363080287775527	0.3065924180654684	0.19845532449315473	0.49345241017931796	0.01684237945798678	0.497141359444625	0.3816715074857033	-0.03857713684012456	0.6159927088912842	0.6009481647676498	-0.059874999948681444	0.3683206059642647	0.6245073284322372	-0.05786492777764804	0.2595246650089834	0.5893912321132049	-0.07103717505340358	0.209681082921388	0.5988155956222053	-0.064990700642708	0.25896351115615696	0.6468529761201314
276	5.0181818181818185	0.2743843340924068	0.48215909804366974	0.8629455923000273	0.2423572161463699	0.559835034779687	1.293345186322453	0.22982990260832345	0.6663892106364989	1.688835297975427	0.2521629003986782	0.5467841043176145	1.7392461333504103	0.3096841785050681	0.571351800437417	1.7395595901841419	0.19900136549607586	0.750444720835978	1.7703513412828062	0.06939557825654691	0.460466180307163	0.8685042133363915	0.07726722383976863	0.533404212398593	1.2876985984867906	0.054399592324655736	0.669834698257999	1.716002344663663	0.08086101455016034	0.4506304561205583	1.687514588685239	0.011103670580904657	0.5255727987287567	1.7189111888279827	0.06929587228002147	0.7543013796036105	1.7738225635787368	0.18417808478012077	0.45231754182315914	0.30096182397550564	0.1913109827153355	0.3773806670194164	0.0642500945461493	0.17002828699803807	0.3196105616112452	0.2072248034417434	0.3169521017320991	0.5085398851970337	0.38708050063459354	0.37219286066238055	0.4774568240615913	0.630601066401198	0.3352147100659908	0.2860876942070252	0.5271317958075525	0.29712133301074806	0.22447074283938934	0.43515470446054344	0.3038852434099381	0.19586489337089344	0.4398739230154333	0.32358182915081934	0.20432982006173186	0.5044170715281242	0.016708839227744975	0.4972354789428722	0.3806032975025666	-0.039915334543590426	0.6039971076562962	0.5989900527450722	-0.06827268177307796	0.3664782735282246	0.6073813206980083	-0.06163843701846545	0.254823730321823	0.5654783282260254	-0.07473501845171521	0.20671230783287314	0.5727913215574731	-0.06471265902917794	0.24054466947966519	0.6172656518324026
